# xmcd CD database file
#
# Track frame offsets:
#	150
#	16755
#	34147
#	52740
#	70502
#	88530
#	105867
#	124640
#	142970
#	161177
#	168130
#	208052
#	229392
#	248280
#	274990
#
# Disc length: 3874 seconds
#
# Revision: 6
# Processed by: cddbd v1.5.2PL0 Copyright (c) Steve Scherf et al.
# Submitted via: CDex 1.70beta2
#
DISCID=b60f200f
DTITLE=Wilson Phillips - Greatest Hits - TOCP-50789
DYEAR=2000
DGENRE=Classical
TTITLE0=Hold On (Single Edit)
TTITLE1=You Won't See Me Cry (LP Version)
TTITLE2=You're in Love (Single-Radio Edit)
TTITLE3=Impulsive (Single Edit)
TTITLE4=Give It Up (New Extended Radio 7'')
TTITLE5=Release Me (Single Version)
TTITLE6=The Dream Is Still Alive (AC Remix)
TTITLE7=Flesh And Blood (Single Edit)
TTITLE8=Daniel (LP Version)
TTITLE9=A Conversation with Wilson Phillips
TTITLE10=Hotel California (Live In Japan)
TTITLE11=Hold On (Live In Japan)
TTITLE12=Naked and Sacred (LP Version) - Chynna Phillips
TTITLE13=Miracle (LP Version) - The Wilsons
TTITLE14=Everything I Need (LP Version) - The Wilsons
EXTD=YEAR: 2000
EXTT0=
EXTT1=
EXTT2=
EXTT3=
EXTT4=
EXTT5=
EXTT6=
EXTT7=
EXTT8=
EXTT9=
EXTT10=
EXTT11=
EXTT12=
EXTT13=
EXTT14=
PLAYORDER=
